M48
; DRILL file {KiCad 9.0.0} date 2025-04-04T13:58:00+0200
; FORMAT={-:-/ absolute / metric / decimal}
; #@! TF.CreationDate,2025-04-04T13:58:00+02:00
; #@! TF.GenerationSoftware,Kicad,Pcbnew,9.0.0
; #@! TF.FileFunction,Plated,1,2,PTH
FMAT,2
METRIC
; #@! TA.AperFunction,Plated,PTH,ViaDrill
T1C0.600
; #@! TA.AperFunction,Plated,PTH,ComponentDrill
T2C0.760
; #@! TA.AperFunction,Plated,PTH,ComponentDrill
T3C0.800
; #@! TA.AperFunction,Plated,PTH,ComponentDrill
T4C0.850
; #@! TA.AperFunction,Plated,PTH,ComponentDrill
T5C0.900
; #@! TA.AperFunction,Plated,PTH,ComponentDrill
T6C0.940
; #@! TA.AperFunction,Plated,PTH,ComponentDrill
T7C1.000
; #@! TA.AperFunction,Plated,PTH,ComponentDrill
T8C1.020
; #@! TA.AperFunction,Plated,PTH,ComponentDrill
T9C1.240
; #@! TA.AperFunction,Plated,PTH,ComponentDrill
T10C1.300
%
G90
G05
T1
X117.5Y-70.0
X121.0Y-92.6
X135.0Y-63.5
X151.5Y-100.0
X152.3Y-81.18
X153.9Y-79.656
X157.0Y-75.5
T3
X52.732Y-72.513
X59.487Y-45.232
X59.487Y-52.852
X60.352Y-72.513
X77.0Y-66.25
X77.0Y-68.75
X77.76Y-44.0
X78.88Y-56.0
X81.26Y-49.5
X93.0Y-44.0
X94.12Y-56.0
X94.7Y-92.38
X94.7Y-107.62
X96.5Y-49.5
X99.5Y-64.135
X99.5Y-71.755
X111.0Y-93.88
X111.0Y-109.12
X115.75Y-93.88
X115.75Y-109.12
X124.5Y-101.75
X124.5Y-106.5
X139.74Y-101.75
X139.74Y-106.5
X153.88Y-39.5
X154.245Y-45.095
X161.38Y-74.5
X161.865Y-45.095
X169.12Y-39.5
X176.62Y-74.5
T4
X85.0Y-68.5
X85.0Y-83.0
X90.0Y-68.5
X90.0Y-83.0
T5
X67.46Y-60.5
X70.0Y-60.5
X128.15Y-93.485
X128.15Y-96.025
X135.62Y-93.485
X135.62Y-96.025
X166.725Y-45.75
X169.265Y-45.75
T6
X101.2Y-97.4
X101.2Y-100.0
X101.2Y-102.6
T7
X81.9Y-99.5
X89.5Y-99.5
X95.85Y-35.235
X95.85Y-37.775
X100.5Y-35.235
X100.5Y-37.775
X106.2Y-46.385
X106.2Y-48.925
X106.2Y-51.465
X106.2Y-54.005
X106.2Y-56.545
X106.2Y-59.085
X106.2Y-61.625
X106.2Y-64.165
X106.2Y-66.705
X106.2Y-69.245
X106.2Y-71.785
X106.2Y-74.325
X106.2Y-76.865
X106.2Y-79.405
X106.2Y-81.945
X106.5Y-35.235
X106.5Y-37.775
X146.85Y-88.92
X146.85Y-91.46
X146.85Y-94.0
X146.85Y-96.54
X146.85Y-102.92
X146.85Y-105.46
X146.85Y-108.0
X146.85Y-110.54
X148.0Y-49.0
X148.0Y-51.54
X148.0Y-54.08
X148.0Y-56.62
X148.0Y-59.16
X148.0Y-61.7
X148.0Y-64.24
X148.0Y-66.78
X148.0Y-69.32
X148.0Y-71.86
X148.0Y-74.4
X148.0Y-76.94
X148.0Y-79.48
X148.0Y-82.02
X151.45Y-102.92
X151.45Y-105.46
X151.45Y-108.0
X151.45Y-110.54
X154.0Y-88.92
X154.0Y-91.46
X154.0Y-94.0
X154.0Y-96.54
X165.35Y-80.46
X165.35Y-83.0
X170.0Y-80.46
X170.0Y-83.0
T8
X114.8Y-46.485
X114.8Y-49.025
X114.8Y-51.565
X114.8Y-54.105
X114.8Y-56.645
X114.8Y-59.185
X114.8Y-61.725
X114.8Y-64.265
X114.8Y-66.805
X114.8Y-69.345
X114.8Y-71.885
X114.8Y-74.425
X114.8Y-76.965
X114.8Y-79.505
X114.8Y-82.045
X140.2Y-46.485
X140.2Y-49.025
X140.2Y-51.565
X140.2Y-54.105
X140.2Y-56.645
X140.2Y-59.185
X140.2Y-61.725
X140.2Y-64.265
X140.2Y-66.805
X140.2Y-69.345
X140.2Y-71.885
X140.2Y-74.425
X140.2Y-76.965
X140.2Y-79.505
X140.2Y-82.045
T9
X69.0Y-69.42
X69.0Y-71.96
X69.0Y-74.5
X71.0Y-45.96
X71.0Y-48.5
X71.0Y-51.04
T10
X48.328Y-47.0
X48.328Y-52.0
X169.025Y-57.235
X169.025Y-62.235
X169.025Y-67.235
T2
G00X49.75Y-59.855
M15
G01X49.75Y-62.145
M16
G05
G00X54.145Y-65.69
M15
G01X51.855Y-65.69
M16
G05
T8
G00X55.705Y-59.73
M15
G01X55.705Y-62.27
M16
G05
M30
